<?xml version="1.0" encoding="UTF-8" standalone="no"?>
<!DOCTYPE svg PUBLIC "-//W3C//DTD SVG 1.1//EN"
 "http://www.w3.org/Graphics/SVG/1.1/DTD/svg11.dtd">
<!-- Generated by graphviz version 2.44.1 (0)
 -->
<!-- Title: classes_jhe_meng_project Pages: 1 -->
<svg width="942pt" height="333pt"
 viewBox="0.00 0.00 941.50 333.00" xmlns="http://www.w3.org/2000/svg" xmlns:xlink="http://www.w3.org/1999/xlink">
<g id="graph0" class="graph" transform="scale(1 1) rotate(0) translate(4 329)">
<title>classes_jhe_meng_project</title>
<polygon fill="white" stroke="transparent" points="-4,4 -4,-329 937.5,-329 937.5,4 -4,4"/>
<!-- 0 -->
<g id="node1" class="node">
<title>0</title>
<polygon fill="none" stroke="black" points="0,-98 0,-227 109,-227 109,-98 0,-98"/>
<text text-anchor="middle" x="54.5" y="-211.8" font-family="Times,serif" font-size="14.00">Pose</text>
<polyline fill="none" stroke="black" points="0,-204 109,-204 "/>
<text text-anchor="start" x="8" y="-188.8" font-family="Times,serif" font-size="14.00">n : int</text>
<text text-anchor="start" x="8" y="-173.8" font-family="Times,serif" font-size="14.00">x</text>
<text text-anchor="start" x="8" y="-158.8" font-family="Times,serif" font-size="14.00">y</text>
<text text-anchor="start" x="8" y="-143.8" font-family="Times,serif" font-size="14.00">z</text>
<polyline fill="none" stroke="black" points="0,-136 109,-136 "/>
<text text-anchor="start" x="8" y="-120.8" font-family="Times,serif" font-size="14.00">fromWP(WP)</text>
<text text-anchor="start" x="8" y="-105.8" font-family="Times,serif" font-size="14.00">zero()</text>
</g>
<!-- 1 -->
<g id="node2" class="node">
<title>1</title>
<polygon fill="none" stroke="black" points="127,-105.5 127,-219.5 186,-219.5 186,-105.5 127,-105.5"/>
<text text-anchor="middle" x="156.5" y="-204.3" font-family="Times,serif" font-size="14.00">RPY</text>
<polyline fill="none" stroke="black" points="127,-196.5 186,-196.5 "/>
<text text-anchor="start" x="135" y="-181.3" font-family="Times,serif" font-size="14.00">n : int</text>
<text text-anchor="start" x="135" y="-166.3" font-family="Times,serif" font-size="14.00">pitch</text>
<text text-anchor="start" x="135" y="-151.3" font-family="Times,serif" font-size="14.00">roll</text>
<text text-anchor="start" x="135" y="-136.3" font-family="Times,serif" font-size="14.00">yaw</text>
<polyline fill="none" stroke="black" points="127,-128.5 186,-128.5 "/>
<text text-anchor="start" x="135" y="-113.3" font-family="Times,serif" font-size="14.00">zero()</text>
</g>
<!-- 2 -->
<g id="node3" class="node">
<title>2</title>
<polygon fill="none" stroke="black" points="204.5,-113 204.5,-212 328.5,-212 328.5,-113 204.5,-113"/>
<text text-anchor="middle" x="266.5" y="-196.8" font-family="Times,serif" font-size="14.00">Trajectories</text>
<polyline fill="none" stroke="black" points="204.5,-189 328.5,-189 "/>
<text text-anchor="start" x="212.5" y="-173.8" font-family="Times,serif" font-size="14.00">items : list</text>
<text text-anchor="start" x="212.5" y="-158.8" font-family="Times,serif" font-size="14.00">loop : int</text>
<text text-anchor="start" x="212.5" y="-143.8" font-family="Times,serif" font-size="14.00">n : int</text>
<polyline fill="none" stroke="black" points="204.5,-136 328.5,-136 "/>
<text text-anchor="start" x="212.5" y="-120.8" font-family="Times,serif" font-size="14.00">add(trajectory)</text>
</g>
<!-- 3 -->
<g id="node4" class="node">
<title>3</title>
<polygon fill="none" stroke="black" points="346.5,-30.5 346.5,-294.5 466.5,-294.5 466.5,-30.5 346.5,-30.5"/>
<text text-anchor="middle" x="406.5" y="-279.3" font-family="Times,serif" font-size="14.00">Trajectory</text>
<polyline fill="none" stroke="black" points="346.5,-271.5 466.5,-271.5 "/>
<text text-anchor="start" x="354.5" y="-256.3" font-family="Times,serif" font-size="14.00">T</text>
<text text-anchor="start" x="354.5" y="-241.3" font-family="Times,serif" font-size="14.00">dest</text>
<text text-anchor="start" x="354.5" y="-226.3" font-family="Times,serif" font-size="14.00">dest_acc</text>
<text text-anchor="start" x="354.5" y="-211.3" font-family="Times,serif" font-size="14.00">dest_vel</text>
<text text-anchor="start" x="354.5" y="-196.3" font-family="Times,serif" font-size="14.00">n : int</text>
<text text-anchor="start" x="354.5" y="-181.3" font-family="Times,serif" font-size="14.00">start</text>
<text text-anchor="start" x="354.5" y="-166.3" font-family="Times,serif" font-size="14.00">start_acc</text>
<text text-anchor="start" x="354.5" y="-151.3" font-family="Times,serif" font-size="14.00">start_vel</text>
<text text-anchor="start" x="354.5" y="-136.3" font-family="Times,serif" font-size="14.00">x</text>
<text text-anchor="start" x="354.5" y="-121.3" font-family="Times,serif" font-size="14.00">y</text>
<text text-anchor="start" x="354.5" y="-106.3" font-family="Times,serif" font-size="14.00">z</text>
<polyline fill="none" stroke="black" points="346.5,-98.5 466.5,-98.5 "/>
<text text-anchor="start" x="354.5" y="-83.3" font-family="Times,serif" font-size="14.00">acceleration(t)</text>
<text text-anchor="start" x="354.5" y="-68.3" font-family="Times,serif" font-size="14.00">position(t)</text>
<text text-anchor="start" x="354.5" y="-53.3" font-family="Times,serif" font-size="14.00">solve()</text>
<text text-anchor="start" x="354.5" y="-38.3" font-family="Times,serif" font-size="14.00">velocity(t)</text>
</g>
<!-- 4 -->
<g id="node5" class="node">
<title>4</title>
<polygon fill="none" stroke="black" points="485,-0.5 485,-324.5 724,-324.5 724,-0.5 485,-0.5"/>
<text text-anchor="middle" x="604.5" y="-309.3" font-family="Times,serif" font-size="14.00">Vehicle</text>
<polyline fill="none" stroke="black" points="485,-301.5 724,-301.5 "/>
<text text-anchor="start" x="493" y="-286.3" font-family="Times,serif" font-size="14.00">RPY</text>
<text text-anchor="start" x="493" y="-271.3" font-family="Times,serif" font-size="14.00">animate : bool</text>
<text text-anchor="start" x="493" y="-256.3" font-family="Times,serif" font-size="14.00">ax</text>
<text text-anchor="start" x="493" y="-241.3" font-family="Times,serif" font-size="14.00">dRPY</text>
<text text-anchor="start" x="493" y="-226.3" font-family="Times,serif" font-size="14.00">data : dict</text>
<text text-anchor="start" x="493" y="-211.3" font-family="Times,serif" font-size="14.00">ddpos</text>
<text text-anchor="start" x="493" y="-196.3" font-family="Times,serif" font-size="14.00">des_yaw : int</text>
<text text-anchor="start" x="493" y="-181.3" font-family="Times,serif" font-size="14.00">dpos</text>
<text text-anchor="start" x="493" y="-166.3" font-family="Times,serif" font-size="14.00">p1 : NoneType</text>
<text text-anchor="start" x="493" y="-151.3" font-family="Times,serif" font-size="14.00">p2 : NoneType</text>
<text text-anchor="start" x="493" y="-136.3" font-family="Times,serif" font-size="14.00">p3 : NoneType</text>
<text text-anchor="start" x="493" y="-121.3" font-family="Times,serif" font-size="14.00">p4 : NoneType</text>
<text text-anchor="start" x="493" y="-106.3" font-family="Times,serif" font-size="14.00">pos</text>
<text text-anchor="start" x="493" y="-91.3" font-family="Times,serif" font-size="14.00">pos_data : list</text>
<polyline fill="none" stroke="black" points="485,-83.5 724,-83.5 "/>
<text text-anchor="start" x="493" y="-68.3" font-family="Times,serif" font-size="14.00">plot()</text>
<text text-anchor="start" x="493" y="-53.3" font-family="Times,serif" font-size="14.00">rotation_matrix()</text>
<text text-anchor="start" x="493" y="-38.3" font-family="Times,serif" font-size="14.00">step(des_pos, des_vel, des_acc)</text>
<text text-anchor="start" x="493" y="-23.3" font-family="Times,serif" font-size="14.00">store()</text>
<text text-anchor="start" x="493" y="-8.3" font-family="Times,serif" font-size="14.00">transformation_matrix()</text>
</g>
<!-- 5 -->
<g id="node6" class="node">
<title>5</title>
<polygon fill="none" stroke="black" points="742,-105.5 742,-219.5 825,-219.5 825,-105.5 742,-105.5"/>
<text text-anchor="middle" x="783.5" y="-204.3" font-family="Times,serif" font-size="14.00">Waypoint</text>
<polyline fill="none" stroke="black" points="742,-196.5 825,-196.5 "/>
<text text-anchor="start" x="750" y="-181.3" font-family="Times,serif" font-size="14.00">n : int</text>
<text text-anchor="start" x="750" y="-166.3" font-family="Times,serif" font-size="14.00">x</text>
<text text-anchor="start" x="750" y="-151.3" font-family="Times,serif" font-size="14.00">y</text>
<text text-anchor="start" x="750" y="-136.3" font-family="Times,serif" font-size="14.00">z</text>
<polyline fill="none" stroke="black" points="742,-128.5 825,-128.5 "/>
<text text-anchor="start" x="750" y="-113.3" font-family="Times,serif" font-size="14.00">zero()</text>
</g>
<!-- 6 -->
<g id="node7" class="node">
<title>6</title>
<polygon fill="none" stroke="black" points="843.5,-120.5 843.5,-204.5 933.5,-204.5 933.5,-120.5 843.5,-120.5"/>
<text text-anchor="middle" x="888.5" y="-189.3" font-family="Times,serif" font-size="14.00">Waypoints</text>
<polyline fill="none" stroke="black" points="843.5,-181.5 933.5,-181.5 "/>
<text text-anchor="start" x="851.5" y="-166.3" font-family="Times,serif" font-size="14.00">n : int</text>
<text text-anchor="start" x="851.5" y="-151.3" font-family="Times,serif" font-size="14.00">wps : list</text>
<polyline fill="none" stroke="black" points="843.5,-143.5 933.5,-143.5 "/>
<text text-anchor="middle" x="888.5" y="-128.3" font-family="Times,serif" font-size="14.00"> </text>
</g>
</g>
</svg>
