<?xml version="1.0" encoding="UTF-8" standalone="no"?>
<!DOCTYPE svg PUBLIC "-//W3C//DTD SVG 1.1//EN"
 "http://www.w3.org/Graphics/SVG/1.1/DTD/svg11.dtd">
<!-- Generated by graphviz version 2.44.1 (0)
 -->
<!-- Title: packages_jhe_meng_project Pages: 1 -->
<svg width="5829pt" height="44pt"
 viewBox="0.00 0.00 5829.00 44.00" xmlns="http://www.w3.org/2000/svg" xmlns:xlink="http://www.w3.org/1999/xlink">
<g id="graph0" class="graph" transform="scale(1 1) rotate(0) translate(4 40)">
<title>packages_jhe_meng_project</title>
<polygon fill="white" stroke="transparent" points="-4,4 -4,-40 5825,-40 5825,4 -4,4"/>
<!-- 0 -->
<g id="node1" class="node">
<title>0</title>
<polygon fill="none" stroke="black" points="406,-36 0,-36 0,0 406,0 406,-36"/>
<text text-anchor="middle" x="203" y="-14.3" font-family="Times,serif" font-size="14.00">/home/jhewers/Documents/meng_project/code/main.py</text>
</g>
<!-- 1 -->
<g id="node2" class="node">
<title>1</title>
<polygon fill="none" stroke="black" points="901.5,-36 424.5,-36 424.5,0 901.5,0 901.5,-36"/>
<text text-anchor="middle" x="663" y="-14.3" font-family="Times,serif" font-size="14.00">/home/jhewers/Documents/meng_project/code/models/__init__.py</text>
</g>
<!-- 2 -->
<g id="node3" class="node">
<title>2</title>
<polygon fill="none" stroke="black" points="1448,-36 920,-36 920,0 1448,0 1448,-36"/>
<text text-anchor="middle" x="1184" y="-14.3" font-family="Times,serif" font-size="14.00">/home/jhewers/Documents/meng_project/code/models/positional/RPY.py</text>
</g>
<!-- 3 -->
<g id="node4" class="node">
<title>3</title>
<polygon fill="none" stroke="black" points="2017.5,-36 1466.5,-36 1466.5,0 2017.5,0 2017.5,-36"/>
<text text-anchor="middle" x="1742" y="-14.3" font-family="Times,serif" font-size="14.00">/home/jhewers/Documents/meng_project/code/models/positional/__init__.py</text>
</g>
<!-- 4 -->
<g id="node5" class="node">
<title>4</title>
<polygon fill="none" stroke="black" points="2568.5,-36 2035.5,-36 2035.5,0 2568.5,0 2568.5,-36"/>
<text text-anchor="middle" x="2302" y="-14.3" font-family="Times,serif" font-size="14.00">/home/jhewers/Documents/meng_project/code/models/positional/pose.py</text>
</g>
<!-- 5 -->
<g id="node6" class="node">
<title>5</title>
<polygon fill="none" stroke="black" points="3153,-36 2587,-36 2587,0 3153,0 3153,-36"/>
<text text-anchor="middle" x="2870" y="-14.3" font-family="Times,serif" font-size="14.00">/home/jhewers/Documents/meng_project/code/models/positional/waypoint.py</text>
</g>
<!-- 6 -->
<g id="node7" class="node">
<title>6</title>
<polygon fill="none" stroke="black" points="3672.5,-36 3171.5,-36 3171.5,0 3672.5,0 3672.5,-36"/>
<text text-anchor="middle" x="3422" y="-14.3" font-family="Times,serif" font-size="14.00">/home/jhewers/Documents/meng_project/code/simulation/__init__.py</text>
</g>
<!-- 7 -->
<g id="node8" class="node">
<title>7</title>
<polygon fill="none" stroke="black" points="4223.5,-36 3690.5,-36 3690.5,0 4223.5,0 4223.5,-36"/>
<text text-anchor="middle" x="3957" y="-14.3" font-family="Times,serif" font-size="14.00">/home/jhewers/Documents/meng_project/code/simulation/parameters.py</text>
</g>
<!-- 8 -->
<g id="node9" class="node">
<title>8</title>
<polygon fill="none" stroke="black" points="4766.5,-36 4241.5,-36 4241.5,0 4766.5,0 4766.5,-36"/>
<text text-anchor="middle" x="4504" y="-14.3" font-family="Times,serif" font-size="14.00">/home/jhewers/Documents/meng_project/code/simulation/simulation.py</text>
</g>
<!-- 9 -->
<g id="node10" class="node">
<title>9</title>
<polygon fill="none" stroke="black" points="5303,-36 4785,-36 4785,0 5303,0 5303,-36"/>
<text text-anchor="middle" x="5044" y="-14.3" font-family="Times,serif" font-size="14.00">/home/jhewers/Documents/meng_project/code/simulation/trajectory.py</text>
</g>
<!-- 10 -->
<g id="node11" class="node">
<title>10</title>
<polygon fill="none" stroke="black" points="5821,-36 5321,-36 5321,0 5821,0 5821,-36"/>
<text text-anchor="middle" x="5571" y="-14.3" font-family="Times,serif" font-size="14.00">/home/jhewers/Documents/meng_project/code/simulation/vehicle.py</text>
</g>
</g>
</svg>
