<?xml version="1.0" encoding="UTF-8" standalone="no"?>
<!DOCTYPE svg PUBLIC "-//W3C//DTD SVG 1.1//EN"
 "http://www.w3.org/Graphics/SVG/1.1/DTD/svg11.dtd">
<!-- Generated by graphviz version 2.44.1 (0)
 -->
<!-- Title: classes_jhe_meng_project Pages: 1 -->
<svg width="1305pt" height="502pt"
 viewBox="0.00 0.00 1304.50 502.00" xmlns="http://www.w3.org/2000/svg" xmlns:xlink="http://www.w3.org/1999/xlink">
<g id="graph0" class="graph" transform="scale(1 1) rotate(0) translate(4 498)">
<title>classes_jhe_meng_project</title>
<polygon fill="white" stroke="transparent" points="-4,4 -4,-498 1300.5,-498 1300.5,4 -4,4"/>
<!-- 0 -->
<g id="node1" class="node">
<title>0</title>
<polygon fill="none" stroke="black" points="786.5,-226.5 786.5,-325.5 984.5,-325.5 984.5,-226.5 786.5,-226.5"/>
<text text-anchor="middle" x="885.5" y="-310.3" font-family="Times,serif" font-size="14.00">AbstractAngleDataObject</text>
<polyline fill="none" stroke="black" points="786.5,-302.5 984.5,-302.5 "/>
<text text-anchor="start" x="794.5" y="-287.3" font-family="Times,serif" font-size="14.00">pitch</text>
<text text-anchor="start" x="794.5" y="-272.3" font-family="Times,serif" font-size="14.00">roll</text>
<text text-anchor="start" x="794.5" y="-257.3" font-family="Times,serif" font-size="14.00">yaw</text>
<polyline fill="none" stroke="black" points="786.5,-249.5 984.5,-249.5 "/>
<text text-anchor="middle" x="885.5" y="-234.3" font-family="Times,serif" font-size="14.00"> </text>
</g>
<!-- 2 -->
<g id="node3" class="node">
<title>2</title>
<polygon fill="none" stroke="black" points="418,-423.5 418,-493.5 609,-493.5 609,-423.5 418,-423.5"/>
<text text-anchor="middle" x="513.5" y="-478.3" font-family="Times,serif" font-size="14.00">AbstractPoseDataObject</text>
<polyline fill="none" stroke="black" points="418,-470.5 609,-470.5 "/>
<polyline fill="none" stroke="black" points="418,-446.5 609,-446.5 "/>
<text text-anchor="start" x="426" y="-431.3" font-family="Times,serif" font-size="14.00">zero()</text>
</g>
<!-- 0&#45;&gt;2 -->
<g id="edge1" class="edge">
<title>0&#45;&gt;2</title>
<path fill="none" stroke="black" d="M846.96,-325.73C827.82,-347 803.12,-370.56 776.5,-386 728.43,-413.87 669.13,-431.21 619.01,-441.83"/>
<polygon fill="none" stroke="black" points="618.2,-438.42 609.11,-443.86 619.61,-445.28 618.2,-438.42"/>
</g>
<!-- 1 -->
<g id="node2" class="node">
<title>1</title>
<polygon fill="none" stroke="black" points="1003,-226.5 1003,-325.5 1154,-325.5 1154,-226.5 1003,-226.5"/>
<text text-anchor="middle" x="1078.5" y="-310.3" font-family="Times,serif" font-size="14.00">AbstractListObject</text>
<polyline fill="none" stroke="black" points="1003,-302.5 1154,-302.5 "/>
<text text-anchor="start" x="1011" y="-287.3" font-family="Times,serif" font-size="14.00">items : list</text>
<text text-anchor="start" x="1011" y="-272.3" font-family="Times,serif" font-size="14.00">loop : bool</text>
<text text-anchor="start" x="1011" y="-257.3" font-family="Times,serif" font-size="14.00">loop_count : int</text>
<polyline fill="none" stroke="black" points="1003,-249.5 1154,-249.5 "/>
<text text-anchor="start" x="1011" y="-234.3" font-family="Times,serif" font-size="14.00">add(item)</text>
</g>
<!-- 3 -->
<g id="node4" class="node">
<title>3</title>
<polygon fill="none" stroke="black" points="35,-226.5 35,-325.5 250,-325.5 250,-226.5 35,-226.5"/>
<text text-anchor="middle" x="142.5" y="-310.3" font-family="Times,serif" font-size="14.00">AbstractPositionDataObject</text>
<polyline fill="none" stroke="black" points="35,-302.5 250,-302.5 "/>
<text text-anchor="start" x="43" y="-287.3" font-family="Times,serif" font-size="14.00">x</text>
<text text-anchor="start" x="43" y="-272.3" font-family="Times,serif" font-size="14.00">y</text>
<text text-anchor="start" x="43" y="-257.3" font-family="Times,serif" font-size="14.00">z</text>
<polyline fill="none" stroke="black" points="35,-249.5 250,-249.5 "/>
<text text-anchor="middle" x="142.5" y="-234.3" font-family="Times,serif" font-size="14.00"> </text>
</g>
<!-- 3&#45;&gt;2 -->
<g id="edge2" class="edge">
<title>3&#45;&gt;2</title>
<path fill="none" stroke="black" d="M184.56,-325.53C205.23,-346.77 231.67,-370.35 259.5,-386 305.08,-411.62 360.5,-428.61 407.93,-439.57"/>
<polygon fill="none" stroke="black" points="407.4,-443.04 417.92,-441.82 408.94,-436.21 407.4,-443.04"/>
</g>
<!-- 4 -->
<g id="node5" class="node">
<title>4</title>
<polygon fill="none" stroke="black" points="400,-0.5 400,-114.5 509,-114.5 509,-0.5 400,-0.5"/>
<text text-anchor="middle" x="454.5" y="-99.3" font-family="Times,serif" font-size="14.00">Pose</text>
<polyline fill="none" stroke="black" points="400,-91.5 509,-91.5 "/>
<text text-anchor="start" x="408" y="-76.3" font-family="Times,serif" font-size="14.00">x</text>
<text text-anchor="start" x="408" y="-61.3" font-family="Times,serif" font-size="14.00">y</text>
<text text-anchor="start" x="408" y="-46.3" font-family="Times,serif" font-size="14.00">z</text>
<polyline fill="none" stroke="black" points="400,-38.5 509,-38.5 "/>
<text text-anchor="start" x="408" y="-23.3" font-family="Times,serif" font-size="14.00">fromWP(WP)</text>
<text text-anchor="start" x="408" y="-8.3" font-family="Times,serif" font-size="14.00">zero()</text>
</g>
<!-- 4&#45;&gt;3 -->
<g id="edge3" class="edge">
<title>4&#45;&gt;3</title>
<path fill="none" stroke="black" d="M399.91,-67.11C352.98,-76.73 285.48,-96.07 237.5,-133 208.74,-155.13 185.77,-188.54 169.63,-217.4"/>
<polygon fill="none" stroke="black" points="166.55,-215.73 164.84,-226.19 172.7,-219.08 166.55,-215.73"/>
</g>
<!-- 7 -->
<g id="node8" class="node">
<title>7</title>
<polygon fill="none" stroke="black" points="268.5,-166.5 268.5,-385.5 388.5,-385.5 388.5,-166.5 268.5,-166.5"/>
<text text-anchor="middle" x="328.5" y="-370.3" font-family="Times,serif" font-size="14.00">Trajectory</text>
<polyline fill="none" stroke="black" points="268.5,-362.5 388.5,-362.5 "/>
<text text-anchor="start" x="276.5" y="-347.3" font-family="Times,serif" font-size="14.00">T : int</text>
<text text-anchor="start" x="276.5" y="-332.3" font-family="Times,serif" font-size="14.00">coeffs : dict</text>
<text text-anchor="start" x="276.5" y="-317.3" font-family="Times,serif" font-size="14.00">dest_acc</text>
<text text-anchor="start" x="276.5" y="-302.3" font-family="Times,serif" font-size="14.00">dest_pos</text>
<text text-anchor="start" x="276.5" y="-287.3" font-family="Times,serif" font-size="14.00">dest_vel</text>
<text text-anchor="start" x="276.5" y="-272.3" font-family="Times,serif" font-size="14.00">start_acc</text>
<text text-anchor="start" x="276.5" y="-257.3" font-family="Times,serif" font-size="14.00">start_pos</text>
<text text-anchor="start" x="276.5" y="-242.3" font-family="Times,serif" font-size="14.00">start_vel</text>
<polyline fill="none" stroke="black" points="268.5,-234.5 388.5,-234.5 "/>
<text text-anchor="start" x="276.5" y="-219.3" font-family="Times,serif" font-size="14.00">acceleration(t)</text>
<text text-anchor="start" x="276.5" y="-204.3" font-family="Times,serif" font-size="14.00">position(t)</text>
<text text-anchor="start" x="276.5" y="-189.3" font-family="Times,serif" font-size="14.00">solve()</text>
<text text-anchor="start" x="276.5" y="-174.3" font-family="Times,serif" font-size="14.00">velocity(t)</text>
</g>
<!-- 4&#45;&gt;7 -->
<g id="edge8" class="edge">
<title>4&#45;&gt;7</title>
<path fill="none" stroke="black" d="M399.57,-61.02C349.65,-66.58 278.61,-83.37 243.5,-133 234.2,-146.15 248.97,-153.01 258.5,-166 259.44,-167.28 260.37,-168.56 261.31,-169.86"/>
<polygon fill="black" stroke="black" points="261.55,-170.2 268.29,-172.78 268.49,-179.99 261.76,-177.41 261.55,-170.2"/>
<text text-anchor="middle" x="275" y="-136.8" font-family="Times,serif" font-size="14.00" fill="green">start_vel</text>
</g>
<!-- 4&#45;&gt;7 -->
<g id="edge9" class="edge">
<title>4&#45;&gt;7</title>
<path fill="none" stroke="black" d="M399.88,-76.53C373.69,-88.23 344.76,-106.37 329.5,-133 325.59,-139.82 322.65,-147.14 320.48,-154.74"/>
<polygon fill="black" stroke="black" points="320.47,-154.75 323.01,-161.5 317.76,-166.44 315.22,-159.69 320.47,-154.75"/>
<text text-anchor="middle" x="359" y="-136.8" font-family="Times,serif" font-size="14.00" fill="green">dest_vel</text>
</g>
<!-- 4&#45;&gt;7 -->
<g id="edge10" class="edge">
<title>4&#45;&gt;7</title>
<path fill="none" stroke="black" d="M421.89,-114.54C413.51,-128.92 404.2,-144.93 394.78,-161.11"/>
<polygon fill="black" stroke="black" points="394.63,-161.37 395.07,-168.57 388.59,-171.75 388.15,-164.55 394.63,-161.37"/>
<text text-anchor="middle" x="443" y="-136.8" font-family="Times,serif" font-size="14.00" fill="green">start_acc</text>
</g>
<!-- 4&#45;&gt;7 -->
<g id="edge11" class="edge">
<title>4&#45;&gt;7</title>
<path fill="none" stroke="black" d="M479.71,-114.52C481.68,-125.87 481.31,-137.53 476.5,-148 460.18,-183.52 428.48,-212.83 398.59,-234.31"/>
<polygon fill="black" stroke="black" points="398.4,-234.44 395.76,-241.15 388.55,-241.29 391.19,-234.58 398.4,-234.44"/>
<text text-anchor="middle" x="511" y="-136.8" font-family="Times,serif" font-size="14.00" fill="green">dest_acc</text>
</g>
<!-- 8 -->
<g id="node9" class="node">
<title>8</title>
<polygon fill="none" stroke="black" points="529,-166.5 529,-385.5 768,-385.5 768,-166.5 529,-166.5"/>
<text text-anchor="middle" x="648.5" y="-370.3" font-family="Times,serif" font-size="14.00">Vehicle</text>
<polyline fill="none" stroke="black" points="529,-362.5 768,-362.5 "/>
<text text-anchor="start" x="537" y="-347.3" font-family="Times,serif" font-size="14.00">animate : bool</text>
<text text-anchor="start" x="537" y="-332.3" font-family="Times,serif" font-size="14.00">data : dict</text>
<text text-anchor="start" x="537" y="-317.3" font-family="Times,serif" font-size="14.00">ddpos</text>
<text text-anchor="start" x="537" y="-302.3" font-family="Times,serif" font-size="14.00">des_yaw : int</text>
<text text-anchor="start" x="537" y="-287.3" font-family="Times,serif" font-size="14.00">dpos</text>
<text text-anchor="start" x="537" y="-272.3" font-family="Times,serif" font-size="14.00">drpy</text>
<text text-anchor="start" x="537" y="-257.3" font-family="Times,serif" font-size="14.00">pos</text>
<text text-anchor="start" x="537" y="-242.3" font-family="Times,serif" font-size="14.00">rpy</text>
<text text-anchor="start" x="537" y="-227.3" font-family="Times,serif" font-size="14.00">size : float</text>
<polyline fill="none" stroke="black" points="529,-219.5 768,-219.5 "/>
<text text-anchor="start" x="537" y="-204.3" font-family="Times,serif" font-size="14.00">rotation_matrix()</text>
<text text-anchor="start" x="537" y="-189.3" font-family="Times,serif" font-size="14.00">step(des_pos, des_vel, des_acc)</text>
<text text-anchor="start" x="537" y="-174.3" font-family="Times,serif" font-size="14.00">transformation_matrix()</text>
</g>
<!-- 4&#45;&gt;8 -->
<g id="edge12" class="edge">
<title>4&#45;&gt;8</title>
<path fill="none" stroke="black" d="M509.23,-67.81C548.06,-77.38 598.15,-96.31 626.5,-133 631.68,-139.71 635.88,-147.14 639.26,-154.98"/>
<polygon fill="black" stroke="black" points="639.29,-155.07 645.14,-159.29 643.51,-166.31 637.65,-162.09 639.29,-155.07"/>
<text text-anchor="middle" x="648" y="-136.8" font-family="Times,serif" font-size="14.00" fill="green">pos</text>
</g>
<!-- 4&#45;&gt;8 -->
<g id="edge13" class="edge">
<title>4&#45;&gt;8</title>
<path fill="none" stroke="black" d="M509.18,-61.1C558.87,-66.72 629.57,-83.55 664.5,-133 669.2,-139.66 672.44,-146.95 674.5,-154.6"/>
<polygon fill="black" stroke="black" points="674.51,-154.67 679.57,-159.81 676.77,-166.45 671.71,-161.31 674.51,-154.67"/>
<text text-anchor="middle" x="689.5" y="-136.8" font-family="Times,serif" font-size="14.00" fill="green">dpos</text>
</g>
<!-- 4&#45;&gt;8 -->
<g id="edge14" class="edge">
<title>4&#45;&gt;8</title>
<path fill="none" stroke="black" d="M509.46,-99.66C521.86,-109.97 534.57,-121.41 545.5,-133 552.64,-140.57 559.7,-148.64 566.59,-156.95"/>
<polygon fill="black" stroke="black" points="566.71,-157.11 573.6,-159.24 574.28,-166.42 567.39,-164.29 566.71,-157.11"/>
<text text-anchor="middle" x="580" y="-136.8" font-family="Times,serif" font-size="14.00" fill="green">ddpos</text>
</g>
<!-- 5 -->
<g id="node6" class="node">
<title>5</title>
<polygon fill="none" stroke="black" points="772.5,-8 772.5,-107 830.5,-107 830.5,-8 772.5,-8"/>
<text text-anchor="middle" x="801.5" y="-91.8" font-family="Times,serif" font-size="14.00">RPY</text>
<polyline fill="none" stroke="black" points="772.5,-84 830.5,-84 "/>
<text text-anchor="start" x="780.5" y="-68.8" font-family="Times,serif" font-size="14.00">pitch</text>
<text text-anchor="start" x="780.5" y="-53.8" font-family="Times,serif" font-size="14.00">roll</text>
<text text-anchor="start" x="780.5" y="-38.8" font-family="Times,serif" font-size="14.00">yaw</text>
<polyline fill="none" stroke="black" points="772.5,-31 830.5,-31 "/>
<text text-anchor="start" x="780.5" y="-15.8" font-family="Times,serif" font-size="14.00">zero()</text>
</g>
<!-- 5&#45;&gt;0 -->
<g id="edge4" class="edge">
<title>5&#45;&gt;0</title>
<path fill="none" stroke="black" d="M827.76,-107.27C831.92,-115.74 836,-124.55 839.5,-133 850.66,-159.96 860.9,-190.68 868.88,-216.64"/>
<polygon fill="none" stroke="black" points="865.57,-217.78 871.82,-226.33 872.27,-215.75 865.57,-217.78"/>
</g>
<!-- 5&#45;&gt;8 -->
<g id="edge15" class="edge">
<title>5&#45;&gt;8</title>
<path fill="none" stroke="black" d="M772.36,-99.73C760.74,-116.18 746.71,-136.03 732.33,-156.37"/>
<polygon fill="black" stroke="black" points="732.18,-156.59 731.99,-163.8 725.26,-166.39 725.45,-159.18 732.18,-156.59"/>
<text text-anchor="middle" x="760" y="-136.8" font-family="Times,serif" font-size="14.00" fill="green">rpy</text>
</g>
<!-- 5&#45;&gt;8 -->
<g id="edge16" class="edge">
<title>5&#45;&gt;8</title>
<path fill="none" stroke="black" d="M792.74,-107.26C789.01,-121.03 783.77,-135.62 776.5,-148 774.85,-150.81 773.12,-153.61 771.32,-156.38"/>
<polygon fill="black" stroke="black" points="771.3,-156.41 771.22,-163.63 764.53,-166.32 764.61,-159.11 771.3,-156.41"/>
<text text-anchor="middle" x="799.5" y="-136.8" font-family="Times,serif" font-size="14.00" fill="green">drpy</text>
</g>
<!-- 6 -->
<g id="node7" class="node">
<title>6</title>
<polygon fill="none" stroke="black" points="1029.5,-22.5 1029.5,-92.5 1131.5,-92.5 1131.5,-22.5 1029.5,-22.5"/>
<text text-anchor="middle" x="1080.5" y="-77.3" font-family="Times,serif" font-size="14.00">Trajectories</text>
<polyline fill="none" stroke="black" points="1029.5,-69.5 1131.5,-69.5 "/>
<polyline fill="none" stroke="black" points="1029.5,-45.5 1131.5,-45.5 "/>
<text text-anchor="middle" x="1080.5" y="-30.3" font-family="Times,serif" font-size="14.00"> </text>
</g>
<!-- 6&#45;&gt;1 -->
<g id="edge5" class="edge">
<title>6&#45;&gt;1</title>
<path fill="none" stroke="black" d="M1080.18,-92.81C1079.88,-125.93 1079.41,-176.75 1079.04,-216.31"/>
<polygon fill="none" stroke="black" points="1075.54,-216.33 1078.95,-226.36 1082.54,-216.4 1075.54,-216.33"/>
</g>
<!-- 11 -->
<g id="node12" class="node">
<title>11</title>
<polygon fill="none" stroke="black" points="1182,-234 1182,-318 1281,-318 1281,-234 1182,-234"/>
<text text-anchor="middle" x="1231.5" y="-302.8" font-family="Times,serif" font-size="14.00">simulation</text>
<polyline fill="none" stroke="black" points="1182,-295 1281,-295 "/>
<text text-anchor="start" x="1190" y="-279.8" font-family="Times,serif" font-size="14.00">trajectories</text>
<text text-anchor="start" x="1190" y="-264.8" font-family="Times,serif" font-size="14.00">waypoints</text>
<polyline fill="none" stroke="black" points="1182,-257 1281,-257 "/>
<text text-anchor="start" x="1190" y="-241.8" font-family="Times,serif" font-size="14.00">run()</text>
</g>
<!-- 6&#45;&gt;11 -->
<g id="edge17" class="edge">
<title>6&#45;&gt;11</title>
<path fill="none" stroke="black" d="M1097.42,-92.78C1107.25,-110.54 1120.79,-131.83 1136.5,-148 1146.55,-158.34 1153.46,-155.65 1163.5,-166 1179.75,-182.75 1194.07,-204.01 1205.33,-223.3"/>
<polygon fill="black" stroke="black" points="1205.35,-223.34 1211.79,-226.59 1211.27,-233.78 1204.83,-230.53 1205.35,-223.34"/>
<text text-anchor="middle" x="1178" y="-136.8" font-family="Times,serif" font-size="14.00" fill="green">trajectories</text>
</g>
<!-- 9 -->
<g id="node10" class="node">
<title>9</title>
<polygon fill="none" stroke="black" points="0,-22.5 0,-92.5 83,-92.5 83,-22.5 0,-22.5"/>
<text text-anchor="middle" x="41.5" y="-77.3" font-family="Times,serif" font-size="14.00">Waypoint</text>
<polyline fill="none" stroke="black" points="0,-69.5 83,-69.5 "/>
<polyline fill="none" stroke="black" points="0,-45.5 83,-45.5 "/>
<text text-anchor="start" x="8" y="-30.3" font-family="Times,serif" font-size="14.00">zero()</text>
</g>
<!-- 9&#45;&gt;3 -->
<g id="edge6" class="edge">
<title>9&#45;&gt;3</title>
<path fill="none" stroke="black" d="M25,-92.87C19.13,-109.86 15.51,-130.44 22.5,-148 33.13,-174.74 52.36,-199.09 72.35,-219.17"/>
<polygon fill="none" stroke="black" points="70.14,-221.89 79.74,-226.36 75.02,-216.88 70.14,-221.89"/>
</g>
<!-- 9&#45;&gt;7 -->
<g id="edge18" class="edge">
<title>9&#45;&gt;7</title>
<path fill="none" stroke="black" d="M31.77,-92.77C28.71,-111.41 29.06,-133.55 42.5,-148 75.31,-183.26 217.23,-141.17 258.5,-166 258.61,-166.07 258.72,-166.13 258.82,-166.2"/>
<polygon fill="black" stroke="black" points="258.65,-166.07 265.86,-166.23 268.48,-172.95 261.28,-172.79 258.65,-166.07"/>
<text text-anchor="middle" x="76" y="-136.8" font-family="Times,serif" font-size="14.00" fill="green">start_pos</text>
</g>
<!-- 9&#45;&gt;7 -->
<g id="edge19" class="edge">
<title>9&#45;&gt;7</title>
<path fill="none" stroke="black" d="M83.12,-92.58C108.2,-111.52 141.58,-134.02 174.5,-148 209.64,-162.93 227.11,-144.27 258.5,-166 258.61,-166.07 258.71,-166.15 258.82,-166.22"/>
<polygon fill="black" stroke="black" points="258.95,-166.32 266.13,-166.89 268.38,-173.74 261.19,-173.17 258.95,-166.32"/>
<text text-anchor="middle" x="206" y="-136.8" font-family="Times,serif" font-size="14.00" fill="green">dest_pos</text>
</g>
<!-- 10 -->
<g id="node11" class="node">
<title>10</title>
<polygon fill="none" stroke="black" points="1174.5,-22.5 1174.5,-92.5 1264.5,-92.5 1264.5,-22.5 1174.5,-22.5"/>
<text text-anchor="middle" x="1219.5" y="-77.3" font-family="Times,serif" font-size="14.00">Waypoints</text>
<polyline fill="none" stroke="black" points="1174.5,-69.5 1264.5,-69.5 "/>
<polyline fill="none" stroke="black" points="1174.5,-45.5 1264.5,-45.5 "/>
<text text-anchor="middle" x="1219.5" y="-30.3" font-family="Times,serif" font-size="14.00"> </text>
</g>
<!-- 10&#45;&gt;1 -->
<g id="edge7" class="edge">
<title>10&#45;&gt;1</title>
<path fill="none" stroke="black" d="M1211.56,-92.6C1206.68,-109.91 1199.44,-130.84 1189.5,-148 1184.13,-157.26 1180.57,-157.97 1173.5,-166 1158.47,-183.08 1142.18,-201.72 1127.4,-218.68"/>
<polygon fill="none" stroke="black" points="1124.65,-216.51 1120.72,-226.35 1129.93,-221.11 1124.65,-216.51"/>
</g>
<!-- 10&#45;&gt;11 -->
<g id="edge20" class="edge">
<title>10&#45;&gt;11</title>
<path fill="none" stroke="black" d="M1221.4,-92.81C1223.32,-127.49 1226.32,-181.58 1228.55,-221.82"/>
<polygon fill="black" stroke="black" points="1228.55,-221.85 1232.88,-227.62 1229.22,-233.83 1224.89,-228.06 1228.55,-221.85"/>
<text text-anchor="middle" x="1260" y="-136.8" font-family="Times,serif" font-size="14.00" fill="green">waypoints</text>
</g>
</g>
</svg>
