<?xml version="1.0" encoding="UTF-8" standalone="no"?>
<!DOCTYPE svg PUBLIC "-//W3C//DTD SVG 1.1//EN"
 "http://www.w3.org/Graphics/SVG/1.1/DTD/svg11.dtd">
<!-- Generated by graphviz version 2.44.1 (0)
 -->
<!-- Title: packages_jhe_meng_project Pages: 1 -->
<svg width="692pt" height="476pt"
 viewBox="0.00 0.00 691.50 476.00" xmlns="http://www.w3.org/2000/svg" xmlns:xlink="http://www.w3.org/1999/xlink">
<g id="graph0" class="graph" transform="scale(1 1) rotate(0) translate(4 472)">
<title>packages_jhe_meng_project</title>
<polygon fill="white" stroke="transparent" points="-4,4 -4,-472 687.5,-472 687.5,4 -4,4"/>
<!-- 0 -->
<g id="node1" class="node">
<title>0</title>
<polygon fill="none" stroke="black" points="203,-36 149,-36 149,0 203,0 203,-36"/>
<text text-anchor="middle" x="176" y="-14.3" font-family="Times,serif" font-size="14.00">main</text>
</g>
<!-- 7 -->
<g id="node8" class="node">
<title>7</title>
<polygon fill="none" stroke="black" points="212,-324 0,-324 0,-288 212,-288 212,-324"/>
<text text-anchor="middle" x="106" y="-302.3" font-family="Times,serif" font-size="14.00">models.positional.waypoint</text>
</g>
<!-- 0&#45;&gt;7 -->
<g id="edge1" class="edge">
<title>0&#45;&gt;7</title>
<path fill="none" stroke="black" d="M169.55,-36.1C157.06,-69.93 129.63,-147.99 116,-216 111.9,-236.45 109.35,-259.91 107.85,-277.61"/>
<polygon fill="black" stroke="black" points="107.05,-287.8 103.35,-277.48 107.44,-282.82 107.84,-277.83 107.84,-277.83 107.84,-277.83 107.44,-282.82 112.32,-278.19 107.05,-287.8 107.05,-287.8"/>
</g>
<!-- 10 -->
<g id="node11" class="node">
<title>10</title>
<polygon fill="none" stroke="black" points="391.5,-108 220.5,-108 220.5,-72 391.5,-72 391.5,-108"/>
<text text-anchor="middle" x="306" y="-86.3" font-family="Times,serif" font-size="14.00">simulation.simulation</text>
</g>
<!-- 0&#45;&gt;10 -->
<g id="edge2" class="edge">
<title>0&#45;&gt;10</title>
<path fill="none" stroke="black" d="M203.25,-33.67C221.2,-43.34 245.03,-56.17 265.22,-67.04"/>
<polygon fill="black" stroke="black" points="274.2,-71.88 263.26,-71.1 269.8,-69.51 265.4,-67.14 265.4,-67.14 265.4,-67.14 269.8,-69.51 267.53,-63.17 274.2,-71.88 274.2,-71.88"/>
</g>
<!-- 1 -->
<g id="node2" class="node">
<title>1</title>
<polygon fill="none" stroke="black" points="289,-36 221,-36 221,0 289,0 289,-36"/>
<text text-anchor="middle" x="255" y="-14.3" font-family="Times,serif" font-size="14.00">models</text>
</g>
<!-- 2 -->
<g id="node3" class="node">
<title>2</title>
<polygon fill="none" stroke="black" points="449,-36 307,-36 307,0 449,0 449,-36"/>
<text text-anchor="middle" x="378" y="-14.3" font-family="Times,serif" font-size="14.00">models.positional</text>
</g>
<!-- 3 -->
<g id="node4" class="node">
<title>3</title>
<polygon fill="none" stroke="black" points="564,-324 388,-324 388,-288 564,-288 564,-324"/>
<text text-anchor="middle" x="476" y="-302.3" font-family="Times,serif" font-size="14.00">models.positional.RPY</text>
</g>
<!-- 5 -->
<g id="node6" class="node">
<title>5</title>
<polygon fill="none" stroke="black" points="451,-468 101,-468 101,-432 451,-432 451,-468"/>
<text text-anchor="middle" x="276" y="-446.3" font-family="Times,serif" font-size="14.00">models.positional.abstractPositionDataObjects</text>
</g>
<!-- 3&#45;&gt;5 -->
<g id="edge3" class="edge">
<title>3&#45;&gt;5</title>
<path fill="none" stroke="black" d="M458.93,-324.02C439.43,-342.94 406.05,-373.76 374,-396 357.51,-407.44 338.28,-418.32 321.25,-427.21"/>
<polygon fill="black" stroke="black" points="312.04,-431.93 318.88,-423.36 316.49,-429.65 320.94,-427.37 320.94,-427.37 320.94,-427.37 316.49,-429.65 322.99,-431.37 312.04,-431.93 312.04,-431.93"/>
</g>
<!-- 4 -->
<g id="node5" class="node">
<title>4</title>
<polygon fill="none" stroke="black" points="331.5,-396 52.5,-396 52.5,-360 331.5,-360 331.5,-396"/>
<text text-anchor="middle" x="192" y="-374.3" font-family="Times,serif" font-size="14.00">models.positional.abstractListObject</text>
</g>
<!-- 4&#45;&gt;5 -->
<g id="edge4" class="edge">
<title>4&#45;&gt;5</title>
<path fill="none" stroke="black" d="M212.76,-396.3C223.24,-405.03 236.11,-415.76 247.5,-425.25"/>
<polygon fill="black" stroke="black" points="255.47,-431.9 244.91,-428.95 251.63,-428.69 247.79,-425.49 247.79,-425.49 247.79,-425.49 251.63,-428.69 250.67,-422.04 255.47,-431.9 255.47,-431.9"/>
</g>
<!-- 6 -->
<g id="node7" class="node">
<title>6</title>
<polygon fill="none" stroke="black" points="447.5,-252 268.5,-252 268.5,-216 447.5,-216 447.5,-252"/>
<text text-anchor="middle" x="358" y="-230.3" font-family="Times,serif" font-size="14.00">models.positional.pose</text>
</g>
<!-- 6&#45;&gt;5 -->
<g id="edge5" class="edge">
<title>6&#45;&gt;5</title>
<path fill="none" stroke="black" d="M360.26,-252.22C363.47,-283.1 366.41,-349.03 341,-396 334.71,-407.62 324.72,-417.66 314.43,-425.78"/>
<polygon fill="black" stroke="black" points="306.18,-431.88 311.55,-422.32 310.2,-428.91 314.22,-425.94 314.22,-425.94 314.22,-425.94 310.2,-428.91 316.9,-429.55 306.18,-431.88 306.18,-431.88"/>
</g>
<!-- 6&#45;&gt;7 -->
<g id="edge6" class="edge">
<title>6&#45;&gt;7</title>
<path fill="none" stroke="black" d="M296.68,-252.03C260.7,-262.03 215.07,-274.7 177.47,-285.15"/>
<polygon fill="black" stroke="black" points="167.6,-287.89 176.03,-280.88 172.42,-286.55 177.23,-285.21 177.23,-285.21 177.23,-285.21 172.42,-286.55 178.44,-289.55 167.6,-287.89 167.6,-287.89"/>
</g>
<!-- 7&#45;&gt;4 -->
<g id="edge7" class="edge">
<title>7&#45;&gt;4</title>
<path fill="none" stroke="black" d="M127.26,-324.3C138.09,-333.12 151.42,-343.97 163.16,-353.53"/>
<polygon fill="black" stroke="black" points="170.99,-359.9 160.39,-357.07 167.11,-356.74 163.23,-353.58 163.23,-353.58 163.23,-353.58 167.11,-356.74 166.07,-350.09 170.99,-359.9 170.99,-359.9"/>
</g>
<!-- 7&#45;&gt;5 -->
<g id="edge8" class="edge">
<title>7&#45;&gt;5</title>
<path fill="none" stroke="black" d="M75.7,-324.2C63.12,-333.1 49.88,-345.23 43,-360 36.25,-374.51 33.02,-383.49 43,-396 54.85,-410.85 88.03,-421.85 125.77,-429.87"/>
<polygon fill="black" stroke="black" points="135.98,-431.94 125.29,-434.36 131.08,-430.95 126.18,-429.95 126.18,-429.95 126.18,-429.95 131.08,-430.95 127.08,-425.54 135.98,-431.94 135.98,-431.94"/>
</g>
<!-- 8 -->
<g id="node9" class="node">
<title>8</title>
<polygon fill="none" stroke="black" points="559,-36 467,-36 467,0 559,0 559,-36"/>
<text text-anchor="middle" x="513" y="-14.3" font-family="Times,serif" font-size="14.00">simulation</text>
</g>
<!-- 9 -->
<g id="node10" class="node">
<title>9</title>
<polygon fill="none" stroke="black" points="683.5,-252 504.5,-252 504.5,-216 683.5,-216 683.5,-252"/>
<text text-anchor="middle" x="594" y="-230.3" font-family="Times,serif" font-size="14.00">simulation.parameters</text>
</g>
<!-- 10&#45;&gt;6 -->
<g id="edge9" class="edge">
<title>10&#45;&gt;6</title>
<path fill="none" stroke="black" d="M321.64,-108.38C329.59,-118.17 338.68,-131.01 344,-144 352.1,-163.75 355.54,-187.73 356.99,-205.82"/>
<polygon fill="black" stroke="black" points="357.64,-215.97 352.51,-206.29 357.32,-210.99 357,-206 357,-206 357,-206 357.32,-210.99 361.49,-205.71 357.64,-215.97 357.64,-215.97"/>
</g>
<!-- 10&#45;&gt;7 -->
<g id="edge10" class="edge">
<title>10&#45;&gt;7</title>
<path fill="none" stroke="black" d="M220.29,-107.54C197.96,-115.4 175.55,-126.98 159,-144 140.22,-163.31 121.2,-237.33 111.88,-277.94"/>
<polygon fill="black" stroke="black" points="109.68,-287.73 107.49,-276.99 110.78,-282.85 111.88,-277.98 111.88,-277.98 111.88,-277.98 110.78,-282.85 116.26,-278.97 109.68,-287.73 109.68,-287.73"/>
</g>
<!-- 10&#45;&gt;9 -->
<g id="edge11" class="edge">
<title>10&#45;&gt;9</title>
<path fill="none" stroke="black" d="M391.6,-101.28C452.35,-110.07 527.32,-124.41 552,-144 571.37,-159.38 582.26,-185.83 588.07,-205.9"/>
<polygon fill="black" stroke="black" points="590.67,-215.73 583.76,-207.21 589.39,-210.9 588.12,-206.06 588.12,-206.06 588.12,-206.06 589.39,-210.9 592.47,-204.91 590.67,-215.73 590.67,-215.73"/>
</g>
<!-- 11 -->
<g id="node12" class="node">
<title>11</title>
<polygon fill="none" stroke="black" points="334.5,-180 167.5,-180 167.5,-144 334.5,-144 334.5,-180"/>
<text text-anchor="middle" x="251" y="-158.3" font-family="Times,serif" font-size="14.00">simulation.trajectory</text>
</g>
<!-- 10&#45;&gt;11 -->
<g id="edge12" class="edge">
<title>10&#45;&gt;11</title>
<path fill="none" stroke="black" d="M292.4,-108.3C285.88,-116.61 277.93,-126.72 270.75,-135.86"/>
<polygon fill="black" stroke="black" points="264.44,-143.9 267.08,-133.25 267.53,-139.96 270.62,-136.03 270.62,-136.03 270.62,-136.03 267.53,-139.96 274.16,-138.81 264.44,-143.9 264.44,-143.9"/>
</g>
<!-- 12 -->
<g id="node13" class="node">
<title>12</title>
<polygon fill="none" stroke="black" points="543,-180 397,-180 397,-144 543,-144 543,-180"/>
<text text-anchor="middle" x="470" y="-158.3" font-family="Times,serif" font-size="14.00">simulation.vehicle</text>
</g>
<!-- 10&#45;&gt;12 -->
<g id="edge13" class="edge">
<title>10&#45;&gt;12</title>
<path fill="none" stroke="black" d="M346.12,-108.12C368.64,-117.74 396.92,-129.81 420.77,-139.99"/>
<polygon fill="black" stroke="black" points="430.01,-143.93 419.05,-144.14 425.41,-141.97 420.81,-140.01 420.81,-140.01 420.81,-140.01 425.41,-141.97 422.58,-135.87 430.01,-143.93 430.01,-143.93"/>
</g>
<!-- 11&#45;&gt;4 -->
<g id="edge14" class="edge">
<title>11&#45;&gt;4</title>
<path fill="none" stroke="black" d="M249.57,-180.39C246.71,-210.42 238.95,-273.65 221,-324 217.69,-333.29 212.9,-342.9 208.16,-351.35"/>
<polygon fill="black" stroke="black" points="203.12,-359.98 204.28,-349.08 205.64,-355.67 208.16,-351.35 208.16,-351.35 208.16,-351.35 205.64,-355.67 212.05,-353.62 203.12,-359.98 203.12,-359.98"/>
</g>
<!-- 11&#45;&gt;6 -->
<g id="edge15" class="edge">
<title>11&#45;&gt;6</title>
<path fill="none" stroke="black" d="M277.18,-180.12C291.04,-189.19 308.24,-200.45 323.21,-210.24"/>
<polygon fill="black" stroke="black" points="331.72,-215.81 320.89,-214.1 327.54,-213.07 323.36,-210.34 323.36,-210.34 323.36,-210.34 327.54,-213.07 325.82,-206.57 331.72,-215.81 331.72,-215.81"/>
</g>
<!-- 11&#45;&gt;7 -->
<g id="edge16" class="edge">
<title>11&#45;&gt;7</title>
<path fill="none" stroke="black" d="M233.51,-180.13C207.93,-205.18 160.17,-251.95 130.92,-280.59"/>
<polygon fill="black" stroke="black" points="123.55,-287.81 127.55,-277.6 127.12,-284.31 130.7,-280.81 130.7,-280.81 130.7,-280.81 127.12,-284.31 133.85,-284.03 123.55,-287.81 123.55,-287.81"/>
</g>
<!-- 12&#45;&gt;3 -->
<g id="edge17" class="edge">
<title>12&#45;&gt;3</title>
<path fill="none" stroke="black" d="M470.72,-180.13C471.75,-204.33 473.62,-248.79 474.84,-277.61"/>
<polygon fill="black" stroke="black" points="475.27,-287.81 470.36,-278.01 475.06,-282.82 474.85,-277.82 474.85,-277.82 474.85,-277.82 475.06,-282.82 479.35,-277.63 475.27,-287.81 475.27,-287.81"/>
</g>
<!-- 12&#45;&gt;6 -->
<g id="edge18" class="edge">
<title>12&#45;&gt;6</title>
<path fill="none" stroke="black" d="M442.6,-180.12C428.09,-189.19 410.08,-200.45 394.41,-210.24"/>
<polygon fill="black" stroke="black" points="385.5,-215.81 391.6,-206.69 389.74,-213.16 393.98,-210.51 393.98,-210.51 393.98,-210.51 389.74,-213.16 396.37,-214.33 385.5,-215.81 385.5,-215.81"/>
</g>
<!-- 12&#45;&gt;9 -->
<g id="edge19" class="edge">
<title>12&#45;&gt;9</title>
<path fill="none" stroke="black" d="M500.33,-180.12C516.7,-189.36 537.08,-200.87 554.65,-210.79"/>
<polygon fill="black" stroke="black" points="563.55,-215.81 552.63,-214.81 559.2,-213.35 554.84,-210.89 554.84,-210.89 554.84,-210.89 559.2,-213.35 557.05,-206.98 563.55,-215.81 563.55,-215.81"/>
</g>
</g>
</svg>
